<svg width="40" height="40" viewBox="0 0 40 40" fill="none" xmlns="http://www.w3.org/2000/svg">
<path d="M20.0002 36.6665C29.2049 36.6665 36.6668 29.2045 36.6668 19.9998C36.6668 10.795 29.2049 3.33313 20.0002 3.33313C10.7954 3.33313 3.3335 10.795 3.3335 19.9998C3.3335 29.2045 10.7954 36.6665 20.0002 36.6665Z" fill="#FFE6E3"/>
<path fill-rule="evenodd" clip-rule="evenodd" d="M20.0002 34.1665C27.8242 34.1665 34.1668 27.8238 34.1668 19.9998C34.1668 12.1758 27.8242 5.83313 20.0002 5.83313C12.1761 5.83313 5.8335 12.1758 5.8335 19.9998C5.8335 27.8238 12.1761 34.1665 20.0002 34.1665ZM36.6668 19.9998C36.6668 29.2045 29.2049 36.6665 20.0002 36.6665C10.7954 36.6665 3.3335 29.2045 3.3335 19.9998C3.3335 10.795 10.7954 3.33313 20.0002 3.33313C29.2049 3.33313 36.6668 10.795 36.6668 19.9998Z" fill="#FE6F61"/>
<path d="M26.1835 26.55C25.9669 26.55 25.7502 26.5 25.5502 26.3666L20.3835 23.2833C19.1002 22.5166 18.1502 20.8333 18.1502 19.35V12.5166C18.1502 11.8333 18.7169 11.2666 19.4002 11.2666C20.0835 11.2666 20.6502 11.8333 20.6502 12.5166V19.35C20.6502 19.95 21.1502 20.8333 21.6669 21.1333L26.8335 24.2166C27.4335 24.5666 27.6169 25.3333 27.2669 25.9333C27.0169 26.3333 26.6002 26.55 26.1835 26.55Z" fill="#FE6F61"/>
</svg>
