<svg width="41" height="40" viewBox="0 0 41 40" fill="none" xmlns="http://www.w3.org/2000/svg">
<path d="M25.931 6.66248H14.7489C9.89171 6.66248 6.99609 9.55699 6.99609 14.4123V25.5768C6.99609 30.4455 9.89171 33.34 14.7489 33.34H25.9177C30.7749 33.34 33.6705 30.4455 33.6705 25.5902V14.4123C33.6838 9.55699 30.7882 6.66248 25.931 6.66248Z" fill="#FFE6E3"/>
<path fill-rule="evenodd" clip-rule="evenodd" d="M7 5.41626H13.6667C14.357 5.41626 14.9167 5.9759 14.9167 6.66626C14.9167 7.35662 14.357 7.91626 13.6667 7.91626H10.0178L16.2172 14.1157C16.7054 14.6039 16.7054 15.3953 16.2172 15.8835C15.7291 16.3716 14.9376 16.3716 14.4495 15.8835L8.25 9.68403V13.3329C8.25 14.0233 7.69036 14.5829 7 14.5829C6.30964 14.5829 5.75 14.0233 5.75 13.3329V6.66626C5.75 5.9759 6.30964 5.41626 7 5.41626ZM30.6489 7.91626H27C26.3096 7.91626 25.75 7.35662 25.75 6.66626C25.75 5.9759 26.3096 5.41626 27 5.41626H33.6667C34.357 5.41626 34.9167 5.9759 34.9167 6.66626V13.3329C34.9167 14.0233 34.357 14.5829 33.6667 14.5829C32.9763 14.5829 32.4167 14.0233 32.4167 13.3329V9.68403L26.2172 15.8835C25.7291 16.3716 24.9376 16.3716 24.4495 15.8835C23.9613 15.3953 23.9613 14.6039 24.4495 14.1157L30.6489 7.91626ZM16.2172 24.1157C16.7054 24.6039 16.7054 25.3953 16.2172 25.8835L10.0178 32.0829H13.6667C14.357 32.0829 14.9167 32.6426 14.9167 33.3329C14.9167 34.0233 14.357 34.5829 13.6667 34.5829H7C6.30964 34.5829 5.75 34.0233 5.75 33.3329V26.6663C5.75 25.9759 6.30964 25.4163 7 25.4163C7.69036 25.4163 8.25 25.9759 8.25 26.6663V30.3152L14.4495 24.1157C14.9376 23.6276 15.7291 23.6276 16.2172 24.1157ZM24.4495 24.1157C24.9376 23.6276 25.7291 23.6276 26.2172 24.1157L32.4167 30.3152V26.6663C32.4167 25.9759 32.9763 25.4163 33.6667 25.4163C34.357 25.4163 34.9167 25.9759 34.9167 26.6663V33.3329C34.9167 34.0233 34.357 34.5829 33.6667 34.5829H27C26.3096 34.5829 25.75 34.0233 25.75 33.3329C25.75 32.6426 26.3096 32.0829 27 32.0829H30.6489L24.4495 25.8835C23.9613 25.3953 23.9613 24.6039 24.4495 24.1157Z" fill="#FE6F61"/>
</svg>
