<svg width="24" height="24" viewBox="0 0 24 24" fill="none" xmlns="http://www.w3.org/2000/svg">
<path d="M3.60001 9H20.4M3.60001 15H20.4M11.5 3C9.81532 5.69961 8.92218 8.81787 8.92218 12C8.92218 15.1821 9.81532 18.3004 11.5 21M12.5 3C14.1847 5.69961 15.0778 8.81787 15.0778 12C15.0778 15.1821 14.1847 18.3004 12.5 21M21 12C21 16.9706 16.9706 21 12 21C7.02944 21 3 16.9706 3 12C3 7.02944 7.02944 3 12 3C16.9706 3 21 7.02944 21 12Z" stroke="#93979E" stroke-width="1.5" stroke-linecap="round" stroke-linejoin="round"/>
</svg>
