<svg width="41" height="40" viewBox="0 0 41 40" fill="none" xmlns="http://www.w3.org/2000/svg">
<path d="M10.6693 13.9166H10.4908C7.60619 13.9166 5.25732 16.2655 5.25732 19.1501V21.7324C5.25732 24.617 7.60619 26.9659 10.4908 26.9659H10.6693C13.5539 26.9659 15.9028 24.617 15.9028 21.7324V19.1501C15.9028 16.2655 13.5539 13.9166 10.6693 13.9166Z" fill="#FFE6E3"/>
<path d="M30.84 13.9166H30.6614C27.7768 13.9166 25.428 16.2655 25.428 19.1501V21.7324C25.428 24.617 27.7768 26.9659 30.6614 26.9659H30.84C33.7246 26.9659 36.0734 24.617 36.0734 21.7324V19.1501C36.0734 16.2655 33.7246 13.9166 30.84 13.9166Z" fill="#FFE6E3"/>
<path fill-rule="evenodd" clip-rule="evenodd" d="M4.00921 16.6889C4.00921 7.48946 11.4668 0.0318604 20.6662 0.0318604C29.8657 0.0318604 37.3233 7.48946 37.3233 16.6889V19.1015L37.3235 19.1502V21.7326L37.3233 21.7764V27.3869C37.3233 32.9785 33.2092 37.6092 27.8429 38.4171C27.3588 39.3574 26.3786 40.0005 25.2482 40.0005H23.5815C21.9707 40.0005 20.6648 38.6947 20.6648 37.0838C20.6648 35.473 21.9707 34.1672 23.5815 34.1672H25.2482C26.4253 34.1672 27.4396 34.8645 27.9004 35.8686C31.8504 35.0663 34.8233 31.5738 34.8233 27.3869V26.8448C33.7234 27.7037 32.3404 28.2161 30.84 28.2161H30.6614C27.0865 28.2161 24.178 25.3076 24.178 21.7326V19.1502C24.178 15.5753 27.0865 12.6668 30.6614 12.6668H30.84C32.2114 12.6668 33.4846 13.0948 34.5333 13.8242C33.2087 7.37884 27.5035 2.53186 20.6662 2.53186C13.8294 2.53186 8.12456 7.37814 6.79949 13.8228C7.84776 13.0942 9.1203 12.6668 10.4908 12.6668H10.6693C14.2443 12.6668 17.1528 15.5753 17.1528 19.1502V21.7326C17.1528 25.3076 14.2443 28.2161 10.6693 28.2161H10.4908C7.09146 28.2161 4.2947 25.5863 4.02812 22.2544H4.00921V21.8902C4.00796 21.8378 4.00732 21.7853 4.00732 21.7326V19.1502C4.00732 19.0976 4.00796 19.0451 4.00921 18.9927V16.6889ZM34.8233 21.7708V19.1121C34.8027 16.9353 33.0215 15.1668 30.84 15.1668H30.6614C28.4672 15.1668 26.678 16.956 26.678 19.1502V21.7326C26.678 23.9268 28.4672 25.7161 30.6614 25.7161H30.84C33.0215 25.7161 34.8027 23.9475 34.8233 21.7708ZM6.50921 19.027V21.8559C6.57472 23.9935 8.33779 25.7161 10.4908 25.7161H10.6693C12.8636 25.7161 14.6528 23.9268 14.6528 21.7326V19.1502C14.6528 16.956 12.8636 15.1668 10.6693 15.1668H10.4908C8.33779 15.1668 6.57472 16.8894 6.50921 19.027Z" fill="#FE6F61"/>
</svg>
