<svg width="220" height="41" viewBox="0 0 220 41" fill="none" xmlns="http://www.w3.org/2000/svg">
<path d="M56.8443 19.8179C57.0296 19.4848 56.9906 19.1041 57.0677 18.7476C57.796 15.3913 59.9152 13.4512 63.1975 12.7166C64.6052 12.3844 66.0687 12.366 67.4843 12.6628C69.6312 13.1285 71.281 14.3262 72.1972 16.3054C74.0843 20.3816 73.9778 24.4891 71.8222 28.4317C70.2322 31.3397 67.2643 32.109 64.4393 31.3458C63.3326 31.0509 62.5012 30.3649 61.8603 29.4334C61.7668 29.2981 61.6767 29.1611 61.5243 28.9347V35.5166C61.5243 36.7212 60.9016 37.5755 59.7628 37.9397C59.7122 37.9608 59.6635 37.9864 59.6173 38.0161C58.7954 38.0161 57.9719 38.003 57.1509 38.0239C56.891 38.0308 56.8408 37.9718 56.8408 37.7134C56.8483 31.7499 56.8495 25.7848 56.8443 19.8179ZM69.115 22.0034C69.0657 20.9696 69.012 19.9219 68.637 18.9176C68.0585 17.3678 66.8781 16.5474 65.1902 16.5413C63.5326 16.5352 62.328 17.2923 61.7772 18.8188C61.0385 20.8638 61.0575 22.9531 61.6975 25.0172C62.1807 26.5783 63.2685 27.3667 64.8862 27.4751C66.8573 27.6078 68.236 26.626 68.7764 24.7154C69.025 23.836 69.0735 22.9305 69.115 22.0034Z" fill="#93979E"/>
<path d="M165.642 38.0193C165.654 36.82 165.679 35.6198 165.669 34.4196C165.669 34.0867 165.765 34.0102 166.082 34.0146C166.639 34.0233 167.203 34.0754 167.755 33.9581C169.248 33.6426 169.783 32.7562 169.308 31.2944C168.343 28.3343 167.356 25.3847 166.376 22.4246C165.357 19.3455 164.346 16.2646 163.315 13.189C163.195 12.8309 163.26 12.7544 163.625 12.7596C165.031 12.7779 166.439 12.7805 167.845 12.7596C168.19 12.7544 168.31 12.8778 168.394 13.1942C169.482 17.2499 170.576 21.3038 171.677 25.356C171.711 25.4803 171.751 25.6037 171.815 25.821C172.127 24.6677 172.419 23.5996 172.704 22.5315C173.435 19.8287 174.165 17.1265 174.897 14.4248C175.213 13.262 175.845 12.7831 177.052 12.7736C177.957 12.7666 178.863 12.7901 179.765 12.7649C180.154 12.7544 180.144 12.89 180.047 13.1924C179.025 16.3929 178.008 19.5955 176.997 22.8001C175.831 26.471 174.664 30.1414 173.495 33.8112C173.303 34.4009 173.069 34.9757 172.794 35.5311C172.104 36.9468 170.988 37.7333 169.445 37.9289C169.326 37.9445 169.186 37.895 169.089 38.0245L165.642 38.0193Z" fill="#93979E"/>
<path d="M138.593 25.2226C138.803 24.2768 139.012 23.3306 139.222 22.3842C139.805 19.7268 140.38 17.0668 140.974 14.4155C141.21 13.3536 141.895 12.807 143.014 12.7785C143.907 12.7551 144.802 12.7784 145.698 12.7689C145.99 12.7689 145.985 12.8737 145.925 13.1067C145.163 16.002 144.406 18.899 143.654 21.7978C142.875 24.8069 142.084 27.815 141.312 30.8275C141.23 31.1489 141.139 31.3083 140.754 31.2849C140.061 31.2442 139.368 31.2736 138.675 31.2736C137.325 31.2736 136.378 30.4863 136.111 29.1732C135.397 25.6589 134.678 22.1463 133.953 18.6354C133.934 18.5419 133.953 18.4276 133.811 18.3522C133.542 19.6515 133.272 20.9377 133.009 22.2257C132.418 25.1175 131.832 28.0108 131.25 30.9055C131.189 31.2104 131.065 31.2901 130.766 31.2806C130.002 31.258 129.238 31.2745 128.473 31.2727C127.276 31.2727 126.362 30.6006 126.054 29.4417C125.188 26.1719 124.336 22.8978 123.48 19.6255C122.923 17.4938 122.38 15.3596 121.809 13.2323C121.71 12.8651 121.756 12.7585 122.155 12.7655C123.338 12.7871 124.521 12.7984 125.706 12.7603C126.139 12.7464 126.258 12.8997 126.34 13.2852C127.022 16.5116 127.726 19.7337 128.419 22.9567C128.592 23.7562 128.765 24.5548 129.002 25.3499C129.412 23.2775 129.821 21.2048 130.23 19.1318C130.519 17.6593 130.793 16.1868 131.1 14.7239C131.344 13.5615 132.313 12.7966 133.525 12.775C134.245 12.7629 134.967 12.7958 135.69 12.7637C136.064 12.7473 136.209 12.8642 136.272 13.2358C136.696 15.6177 137.144 17.9997 137.584 20.3747C137.87 21.9182 138.159 23.4614 138.45 25.0043C138.465 25.0814 138.493 25.1559 138.514 25.2313L138.593 25.2226Z" fill="#93979E"/>
<path d="M109.812 25.0799C109.812 27.0026 109.8 28.9245 109.821 30.8472C109.821 31.2161 109.719 31.3014 109.367 31.2851C108.721 31.2558 108.069 31.2782 107.423 31.2764C106.002 31.2764 105.087 30.3534 105.087 28.9271C105.087 25.8857 105.087 22.8443 105.082 19.8029C105.085 19.4305 105.051 19.0587 104.981 18.6929C104.714 17.3915 103.705 16.5047 102.374 16.3832C101.842 16.3349 101.309 16.3384 100.79 16.4927C99.498 16.8753 98.7229 17.9845 98.722 19.4797C98.718 23.2666 98.7203 27.0538 98.7289 30.8412C98.7289 31.1946 98.6537 31.2928 98.2886 31.2868C96.9641 31.2618 95.6388 31.2678 94.3143 31.2868C94.0159 31.2868 93.8948 31.2497 93.8965 30.9015C93.9112 27.3293 93.8965 23.7579 93.9095 20.1856C93.9043 19.1524 94.0599 18.1247 94.3706 17.139C95.0081 15.1672 96.2997 13.8124 98.2505 13.1091C100.331 12.3487 102.597 12.2466 104.739 12.817C107.469 13.5219 109.038 15.3163 109.594 18.0431C109.745 18.8025 109.819 19.5752 109.814 20.3493C109.811 21.9253 109.81 23.5022 109.812 25.0799Z" fill="#93979E"/>
<path d="M162.332 22.7698C162.35 24.1996 162.353 25.5418 162.112 26.8735C161.698 29.1555 160.36 30.5871 158.156 31.203C155.985 31.8111 153.768 31.9423 151.578 31.4254C148.499 30.7 146.874 28.2017 147.231 25.044C147.57 22.0592 149.365 20.3696 152.078 19.5487C153.868 19.0066 155.713 18.8016 157.579 19.176C157.887 19.2377 157.944 19.1439 157.916 18.8537C157.789 17.4873 156.987 16.5334 155.604 16.2389C153.833 15.8519 151.987 16.0156 150.311 16.708C150.027 16.8236 149.937 16.821 149.858 16.4952C149.642 15.5979 149.386 14.7092 149.129 13.8231C149.057 13.5764 149.118 13.4635 149.351 13.3653C150.399 12.9239 151.508 12.6445 152.639 12.5366C154.211 12.3802 155.771 12.4306 157.313 12.7972C159.736 13.3757 161.196 14.9072 161.823 17.3048C162.31 19.1317 162.37 20.9872 162.332 22.7698ZM156.154 22.2937C155.29 22.2731 154.428 22.3961 153.604 22.6577C151.924 23.2102 151.1 24.6731 151.5 26.3575C151.682 27.1289 152.142 27.6266 152.884 27.8794C153.598 28.1235 154.33 28.1061 155.061 28.0158C156.494 27.8368 157.424 27.0342 157.789 25.6703C158.048 24.6939 157.97 23.6906 157.982 22.6959C157.982 22.4892 157.845 22.4753 157.701 22.4449C157.194 22.3292 156.674 22.2785 156.154 22.2937Z" fill="#93979E"/>
<path d="M112.432 17.9841C112.432 14.5544 112.438 11.1246 112.424 7.69579C112.424 7.33152 112.517 7.23067 112.874 7.24893C113.53 7.28283 114.191 7.23153 114.85 7.27413C116.139 7.36107 117.026 8.32696 117.044 9.63799C117.058 10.5787 117.058 11.5193 117.044 12.46C117.044 12.7286 117.116 12.8025 117.38 12.7956C118.08 12.7773 118.781 12.7956 119.481 12.7843C119.706 12.7843 119.785 12.8495 119.772 13.0773C119.747 13.512 119.816 13.9467 119.724 14.3761C119.487 15.4794 118.63 16.1731 117.47 16.1697C117.126 16.1697 117.04 16.2566 117.04 16.6044C117.053 19.8593 117.045 23.1152 117.049 26.371C117.049 27.3073 117.41 27.6812 118.338 27.7142C118.723 27.7281 119.111 27.7272 119.496 27.7142C119.692 27.7072 119.769 27.7559 119.766 27.975C119.756 29.0183 119.754 30.0615 119.766 31.1005C119.766 31.3404 119.68 31.3752 119.469 31.39C117.911 31.4943 116.357 31.4256 114.806 31.2787C113.384 31.1448 112.487 30.0502 112.454 28.361C112.42 26.7092 112.436 25.0626 112.433 23.4125C112.43 21.6036 112.43 19.7941 112.432 17.9841Z" fill="#93979E"/>
<path d="M75.3806 25.8185C75.4301 24.3026 75.2747 22.4533 75.4717 20.6125C75.7165 18.3248 76.4484 16.2545 78.3018 14.7404C79.7603 13.5493 81.4896 13.0357 83.3309 12.8485C83.8753 12.7922 84.4274 12.8044 84.9743 12.7619C85.2348 12.7437 85.3216 12.8208 85.3216 13.0937C85.3094 14.5374 85.3094 15.9811 85.3216 17.4248C85.3216 17.6752 85.2408 17.7401 84.9986 17.741C84.3202 17.7268 83.6417 17.7604 82.9681 17.8415C81.0842 18.1083 80.1744 19.0542 80.0763 20.9547C80.0181 22.0626 80.0303 23.1739 80.0277 24.2844C80.0207 26.4916 80.0222 28.6985 80.032 30.905C80.032 31.2065 79.9565 31.2905 79.6518 31.287C78.3357 31.2697 77.0199 31.2697 75.7044 31.287C75.4292 31.287 75.3736 31.2108 75.3754 30.9501C75.3884 29.3493 75.3806 27.7485 75.3806 25.8185Z" fill="#93979E"/>
<path d="M91.5914 23.0884C91.5914 25.7329 91.5861 28.3782 91.5993 31.0226C91.5993 31.3378 91.5422 31.453 91.2004 31.4303C90.6897 31.3919 90.1768 31.3919 89.6662 31.4303C88.1882 31.5587 86.8473 30.4333 86.8543 28.6279C86.8736 25.3007 86.8596 21.9727 86.8596 18.6446C86.8596 16.8113 86.8666 14.9831 86.8525 13.1523C86.8525 12.8529 86.922 12.7481 87.2374 12.7603C87.8657 12.7857 88.4957 12.7665 89.124 12.7682C90.573 12.7682 91.5791 13.7513 91.5844 15.1996C91.5993 17.8284 91.5914 20.4579 91.5914 23.0884Z" fill="#93979E"/>
<path d="M189.14 26.7821C189.134 25.1293 189.631 23.691 191.031 22.7155C193.611 20.9169 197.21 22.4405 197.745 25.5515C197.949 26.739 197.928 27.924 197.428 29.052C196.633 30.8505 194.935 31.7916 192.933 31.5581C191.031 31.3366 189.591 29.9552 189.236 28.0248C189.163 27.6148 189.131 27.1985 189.14 26.7821ZM195.443 26.8571C195.443 25.9617 195.328 25.4068 195.046 24.9095C194.345 23.6703 192.643 23.6315 191.978 24.8862C191.33 26.1082 191.365 27.4009 191.945 28.6444C192.245 29.2864 192.805 29.6087 193.544 29.5924C194.261 29.5743 194.754 29.2158 195.08 28.6039C195.376 28.0455 195.461 27.4397 195.444 26.8588L195.443 26.8571Z" fill="#93979E"/>
<path d="M184.703 26.7676C184.703 25.3427 184.712 23.9169 184.697 22.492C184.697 22.1902 184.77 22.0765 185.077 22.1036C185.383 22.1307 185.679 22.0975 185.977 22.1124C186.656 22.1473 187.135 22.6258 187.138 23.3177C187.148 25.9209 187.138 28.524 187.147 31.1271C187.147 31.3843 187.061 31.4455 186.825 31.4394C186.223 31.4254 185.621 31.4184 185.024 31.4394C184.739 31.4508 184.698 31.3318 184.699 31.0843C184.708 29.6471 184.703 28.2074 184.703 26.7676Z" fill="#93979E"/>
<path d="M89.2271 11.2205C88.5544 11.2205 87.8809 11.2109 87.2047 11.2257C86.9523 11.2317 86.845 11.1849 86.8529 10.8997C86.8714 9.84708 86.8688 8.79451 86.8529 7.74193C86.8529 7.47662 86.9233 7.39511 87.1968 7.40032C87.8545 7.41939 88.5157 7.40725 89.1708 7.40725C90.5777 7.40725 91.3198 8.03585 91.493 9.40142C91.5546 9.88609 91.5502 10.3786 91.595 10.8658C91.6197 11.139 91.5423 11.2378 91.2433 11.2274C90.5733 11.2048 89.8997 11.2213 89.2271 11.2205Z" fill="#93979E"/>
<path d="M185.918 21.4301C185.543 21.4301 185.051 21.583 184.821 21.3881C184.59 21.1932 184.754 20.6408 184.748 20.2465C184.737 19.4965 184.748 19.4965 185.44 19.4965C185.609 19.4965 185.778 19.4965 185.947 19.4965C186.655 19.5081 187.116 19.9935 187.141 20.748C187.163 21.4632 187.163 21.4632 186.505 21.4632H185.914L185.918 21.4301Z" fill="#93979E"/>
<path d="M181.116 31.3917C180.797 31.3549 180.281 31.5667 180.055 31.3147C179.864 31.1039 179.994 30.5982 179.991 30.2229C179.991 29.4521 179.991 29.4513 180.754 29.453C180.989 29.4448 181.223 29.4513 181.456 29.4723C182.21 29.5676 182.79 30.6454 182.458 31.3095C182.395 31.4363 182.282 31.3891 182.195 31.3899C181.855 31.3952 181.519 31.3917 181.116 31.3917Z" fill="#93979E"/>
<path d="M36.1756 35.1086C35.9778 35.0236 35.7754 34.9479 35.583 34.8514C34.8304 34.4737 34.3617 33.8511 34.0638 33.0799C33.7838 32.3537 33.6401 31.591 33.4462 30.8414C32.939 28.8685 32.4341 26.895 31.9315 24.9209C31.4671 23.0995 31.0033 21.2778 30.54 19.4558C30.2076 18.154 29.8692 16.8538 29.5404 15.55C29.3213 14.684 29.0671 13.8258 28.9367 12.9395C28.8559 12.3913 28.8109 11.8434 28.9064 11.2889C29.0234 10.6093 29.3992 10.1224 29.9722 9.76939C30.4612 9.46919 30.9996 9.28047 31.5267 9.06894C33.0738 8.44312 34.6224 7.82111 36.1724 7.20291C37.248 6.77592 38.3089 6.29971 39.4236 5.97214C40.7682 5.5784 42.1375 5.34339 43.5433 5.38055C45.1495 5.42292 46.6537 5.80428 47.9761 6.76158C48.9324 7.45258 49.6299 8.36457 50.1867 9.39097C50.9986 10.8874 51.4578 12.493 51.6534 14.1784C51.8209 15.6227 51.7417 17.0467 51.3108 18.4434C50.8545 19.9209 50.0589 21.1976 49.0048 22.3222C47.7496 23.6615 46.2127 24.577 44.5511 25.3075C43.527 25.7576 42.4699 26.1109 41.3715 26.33C41.0687 26.3906 40.763 26.4411 40.4562 26.4721C40.3073 26.4871 40.2933 26.5294 40.3285 26.6598C40.722 28.1246 41.1131 29.5902 41.5019 31.0565C41.6409 31.5799 41.7799 32.1033 41.9188 32.6266C41.9337 32.6836 41.9575 32.7384 41.9771 32.7941C42.0055 32.915 42.0315 33.0366 42.0622 33.1565C42.1756 33.6041 42.0866 33.7908 41.6583 33.9528C41.2737 34.0985 40.8836 34.2289 40.4967 34.3678C39.584 34.6937 38.6772 35.034 37.7085 35.1608C37.1983 35.231 36.6799 35.2134 36.1756 35.1086ZM40.1469 11.7948C39.8598 11.8274 39.5886 11.9252 39.3171 12.0158C38.3946 12.3215 37.5185 12.7387 36.6378 13.1449C36.5462 13.1872 36.5325 13.2293 36.5625 13.3183C36.6111 13.4617 36.6469 13.6093 36.689 13.7547C37.2057 15.5383 37.7233 17.322 38.2418 19.1057C38.2923 19.2785 38.307 19.4669 38.422 19.6184C38.4111 19.6425 38.4093 19.6698 38.4171 19.695C38.5784 20.2518 38.7382 20.8088 38.8966 21.3662C38.9217 21.4548 38.9729 21.448 39.0439 21.4385C39.9996 21.3081 40.9285 21.0764 41.8099 20.683C43.4634 19.945 44.3197 18.6546 44.424 16.8531C44.4794 15.8926 44.3262 14.9627 44.0188 14.0559C43.8128 13.4454 43.5478 12.861 43.0847 12.3988C42.2418 11.5575 41.2206 11.5367 40.1469 11.7948Z" fill="#93979E"/>
<path d="M36.1756 35.1087C36.6795 35.2135 37.1977 35.2312 37.7076 35.1612C38.6763 35.0344 39.584 34.6954 40.4957 34.3681C40.8826 34.2293 41.2727 34.0989 41.6574 33.9532C42.0856 33.7902 42.1746 33.6045 42.0612 33.1569C42.0306 33.037 42.0045 32.9154 41.9761 32.7945C42.717 32.8975 43.4579 32.9992 44.1984 33.1038C45.3094 33.2609 46.4203 33.4189 47.5309 33.5777C47.6704 33.5976 47.8099 33.6162 47.9491 33.638C48.1446 33.669 48.275 33.7837 48.2874 33.9366C48.3004 34.0797 48.1987 34.2026 48.0041 34.2648C46.8907 34.6225 45.7777 34.9792 44.6652 35.3349C42.233 36.1109 39.8014 36.8877 37.3705 37.6654C37.2218 37.7173 37.0605 37.721 36.9096 37.6758C34.1469 36.8486 31.3839 36.0229 28.6206 35.1987C28.6 35.1925 28.5795 35.1846 28.559 35.1775C28.3862 35.1191 28.2953 35.0099 28.2982 34.8655C28.3011 34.7211 28.4175 34.5966 28.5915 34.5601C28.8246 34.5112 29.0596 34.4708 29.2936 34.4262L31.7203 33.9633C31.7617 33.9552 31.8024 33.9421 31.8699 33.9245C31.4872 33.771 31.1267 33.6279 30.7672 33.4816C30.3314 33.3043 29.895 33.1273 29.4768 32.9118C28.5681 32.4434 28.0101 31.6788 27.6841 30.7339C27.1985 29.3264 26.8301 27.8838 26.4416 26.4477C25.366 22.4663 24.38 18.4621 23.3126 14.4767C22.9739 13.2118 22.6336 11.9471 22.2545 10.6929C21.9015 9.525 22.3364 8.37474 23.3777 7.62898C23.8315 7.30304 24.3412 7.09345 24.8543 6.88778C26.8676 6.0814 28.8552 5.21178 30.8842 4.44679C32.4641 3.84868 34.0818 3.39627 35.7509 3.13388C36.7698 2.97385 37.7916 2.96863 38.8158 3.06641C39.9566 3.17658 41.0801 3.37671 42.1688 3.74536C42.3767 3.81576 42.5834 3.89007 42.7766 4.01393C42.5328 4.00187 42.2877 3.98753 42.0455 3.97841C40.6528 3.92625 39.2913 4.14333 37.9387 4.44222C36.1349 4.8402 34.3973 5.4357 32.6913 6.13029C30.9853 6.82488 29.2767 7.52533 27.5739 8.23035C26.8288 8.53836 26.175 8.9735 25.7487 9.68047C25.3324 10.3682 25.2271 11.1094 25.4335 11.8858C26.2336 14.8923 27.0366 17.898 27.8425 20.9027C28.57 23.6364 29.2923 26.3714 30.0264 29.1058C30.3151 30.1814 30.584 31.2642 31.0042 32.3C31.2591 32.9291 31.5889 33.5103 32.145 33.9297C32.4967 34.1944 32.9074 34.3382 33.3151 34.4839C34.1701 34.7857 35.0527 34.9728 35.9484 35.1064C36.024 35.1122 36.0999 35.113 36.1756 35.1087Z" fill="#93979E"/>
<path d="M40.147 11.7947C40.7901 12.8704 41.0828 14.0568 41.1154 15.2918C41.1623 17.0734 40.3514 18.8413 38.4221 19.6184C38.3077 19.4668 38.2918 19.2784 38.2419 19.1057C37.7204 17.3238 37.2028 15.5402 36.6891 13.7546C36.647 13.6093 36.6112 13.4613 36.5626 13.3182C36.5326 13.2292 36.5463 13.1878 36.6379 13.1448C37.518 12.7387 38.3947 12.3215 39.3172 12.0157C39.5887 11.9254 39.8599 11.829 40.147 11.7947Z" fill="#93979E"/>
</svg>
